<svg id="Capa_1" enable-background="new 0 0 512.008 512.008" height="512" viewBox="0 0 512.008 512.008" width="512" xmlns="http://www.w3.org/2000/svg"><g><path d="m497.004 313.008h-330v-92.469c18.58-6.276 32-23.86 32-44.531 0-25.916-21.084-47-47-47s-47 21.084-47 47c0 20.671 13.42 38.255 32 44.531v92.469h-122c-8.284 0-15 6.716-15 15v144c0 8.284 6.716 15 15 15h42v10c0 8.284 6.716 15 15 15s15-6.716 15-15v-10h338v10c0 8.284 6.716 15 15 15s15-6.716 15-15v-10h42c8.284 0 15-6.716 15-15v-144c0-8.285-6.716-15-15-15zm-242 95c0 8.284-6.716 15-15 15s-15-6.716-15-15v-16c0-8.284 6.716-15 15-15s15 6.716 15 15zm64 0c0 8.284-6.716 15-15 15s-15-6.716-15-15v-16c0-8.284 6.716-15 15-15s15 6.716 15 15zm64 0c0 8.284-6.716 15-15 15s-15-6.716-15-15v-16c0-8.284 6.716-15 15-15s15 6.716 15 15zm64 0c0 8.284-6.716 15-15 15s-15-6.716-15-15v-16c0-8.284 6.716-15 15-15s15 6.716 15 15z"/><path d="m73.515 97.519c-5.857 5.857-5.857 15.355 0 21.213 5.857 5.857 15.355 5.857 21.213 0 31.655-31.655 82.892-31.659 114.551 0 5.856 5.857 15.354 5.859 21.213 0 5.858-5.857 5.858-15.355 0-21.213-43.377-43.378-113.593-43.386-156.977 0z"/><path d="m49.473 73.477c57.494-57.494 147.567-57.494 205.062 0 2.929 2.929 6.768 4.394 10.606 4.394 13.243 0 20.084-16.13 10.606-25.606-69.666-69.667-177.783-69.705-247.487 0-5.858 5.857-5.858 15.355 0 21.213 5.858 5.857 15.356 5.857 21.213-.001z"/></g></svg>